<svg width="20" height="20" viewBox="0 0 20 20" fill="none" xmlns="http://www.w3.org/2000/svg">
<path d="M18.7158 13.4744L14.1152 11.4129L14.1025 11.407C13.8637 11.3049 13.6032 11.2639 13.3445 11.2878C13.0858 11.3116 12.8372 11.3996 12.6211 11.5437C12.5957 11.5606 12.5712 11.5788 12.5479 11.5984L10.1709 13.6248C8.66505 12.8934 7.11036 11.3504 6.37892 9.86406L8.40821 7.45097C8.42774 7.42656 8.4463 7.40215 8.46388 7.37578C8.60492 7.16025 8.69049 6.9132 8.71298 6.65661C8.73547 6.40002 8.69418 6.14185 8.59278 5.90508V5.89336L6.5254 1.28496C6.39136 0.975647 6.16087 0.717981 5.86836 0.550426C5.57584 0.382871 5.23697 0.314413 4.90235 0.355271C3.57908 0.529399 2.36444 1.17926 1.4853 2.18349C0.606149 3.18771 0.122616 4.47762 0.125009 5.8123C0.125009 13.5662 6.4336 19.8748 14.1875 19.8748C15.5222 19.8772 16.8121 19.3937 17.8163 18.5145C18.8205 17.6354 19.4704 16.4207 19.6445 15.0975C19.6855 14.7629 19.6172 14.4242 19.4498 14.1317C19.2824 13.8392 19.025 13.6086 18.7158 13.4744ZM14.1875 18.3123C10.8734 18.3087 7.69609 16.9906 5.35267 14.6471C3.00925 12.3037 1.69113 9.1264 1.68751 5.8123C1.68384 4.85868 2.0274 3.93632 2.65405 3.21748C3.28069 2.49865 4.14757 2.03248 5.09278 1.90605C5.0924 1.90995 5.0924 1.91387 5.09278 1.91777L7.14356 6.50761L5.12501 8.92363C5.10452 8.9472 5.08591 8.97235 5.06934 8.99883C4.92239 9.22433 4.83618 9.48398 4.81907 9.7526C4.80196 10.0212 4.85453 10.2897 4.97169 10.532C5.85645 12.3416 7.6797 14.1512 9.5088 15.035C9.7529 15.151 10.0229 15.2018 10.2925 15.1823C10.5621 15.1627 10.822 15.0736 11.0469 14.9236C11.072 14.9067 11.0961 14.8885 11.1192 14.8689L13.4932 12.8436L18.083 14.8992C18.083 14.8992 18.0908 14.8992 18.0938 14.8992C17.9689 15.8458 17.5034 16.7144 16.7844 17.3426C16.0655 17.9708 15.1423 18.3155 14.1875 18.3123Z" fill="#44AEC5"/>
</svg>
