<svg width="21" height="17" viewBox="0 0 21 17" fill="none" xmlns="http://www.w3.org/2000/svg">
<path d="M19.875 0.6875H1.125C0.9178 0.6875 0.719086 0.76981 0.572573 0.916323C0.42606 1.06284 0.34375 1.26155 0.34375 1.46875V14.75C0.34375 15.1644 0.50837 15.5618 0.801396 15.8549C1.09442 16.1479 1.49185 16.3125 1.90625 16.3125H19.0938C19.5082 16.3125 19.9056 16.1479 20.1986 15.8549C20.4916 15.5618 20.6562 15.1644 20.6562 14.75V1.46875C20.6562 1.26155 20.5739 1.06284 20.4274 0.916323C20.2809 0.76981 20.0822 0.6875 19.875 0.6875ZM17.8662 2.25L10.5 9.00293L3.13379 2.25H17.8662ZM19.0938 14.75H1.90625V3.24512L9.97168 10.6387C10.1158 10.771 10.3043 10.8444 10.5 10.8444C10.6957 10.8444 10.8842 10.771 11.0283 10.6387L19.0938 3.24512V14.75Z" fill="#44AEC5"/>
</svg>
