<svg width="64" height="64" viewBox="0 0 64 64" fill="none" xmlns="http://www.w3.org/2000/svg">
<path d="M29.455 54.3626C29.3741 54.6873 29.187 54.9757 28.9233 55.1818C28.6597 55.3879 28.3346 55.5 28 55.5001C27.877 55.4998 27.7544 55.4847 27.635 55.4551L19.635 53.4551C19.4687 53.4125 19.3106 53.3424 19.1675 53.2476L13.1675 49.2476C13.0033 49.1383 12.8623 48.9977 12.7525 48.8339C12.6427 48.67 12.5662 48.4862 12.5274 48.2928C12.4491 47.9023 12.5292 47.4966 12.75 47.1651C12.9708 46.8336 13.3142 46.6033 13.7048 46.525C13.8981 46.4863 14.0973 46.486 14.2908 46.5242C14.4843 46.5623 14.6683 46.6383 14.8325 46.7476L20.615 50.6026L28.365 52.5401C28.5563 52.588 28.7364 52.6732 28.8947 52.7907C29.0531 52.9083 29.1868 53.056 29.288 53.2253C29.3893 53.3945 29.4561 53.5821 29.4848 53.7773C29.5134 53.9725 29.5033 54.1713 29.455 54.3626ZM62.6375 30.2126C62.494 30.6487 62.2654 31.0519 61.965 31.3991C61.6646 31.7462 61.2984 32.0304 60.8875 32.2351L54.8875 35.2351L41.06 49.0626C40.7785 49.3431 40.3973 49.5004 40 49.5001C39.8769 49.4999 39.7544 49.4848 39.635 49.4551L23.635 45.4551C23.4552 45.4084 23.2857 45.3287 23.135 45.2201L9.22499 35.2901L3.11749 32.2351C2.28747 31.8199 1.65632 31.0921 1.36284 30.2116C1.06936 29.3312 1.13758 28.3702 1.55249 27.5401L7.76499 15.1176C8.18016 14.2876 8.908 13.6564 9.78844 13.3629C10.6689 13.0695 11.6298 13.1377 12.46 13.5526L18.15 16.3976L31.5875 12.5576C31.8571 12.4805 32.1429 12.4805 32.4125 12.5576L45.85 16.3976L51.54 13.5526C52.3701 13.1377 53.3311 13.0695 54.2115 13.3629C55.092 13.6564 55.8198 14.2876 56.235 15.1176L62.4475 27.5401C62.654 27.9509 62.7772 28.3986 62.8098 28.8573C62.8424 29.316 62.7838 29.7766 62.6375 30.2126ZM4.45999 29.5526L9.32999 32.0001L16 18.6701L11.1175 16.2351C10.9988 16.1761 10.8616 16.1667 10.7359 16.2089C10.6103 16.2511 10.5065 16.3415 10.4475 16.4601L4.23499 28.8826C4.17686 29.001 4.16787 29.1376 4.20999 29.2626C4.22953 29.3255 4.26181 29.3837 4.30482 29.4336C4.34783 29.4835 4.40065 29.524 4.45999 29.5526ZM47.75 38.1226L40.0675 31.9701C35.3175 36.0651 29.1725 36.6701 24.1175 33.4401C23.6752 33.1588 23.3018 32.7819 23.0247 32.337C22.7476 31.8921 22.574 31.3907 22.5167 30.8697C22.4593 30.3487 22.5197 29.8215 22.6933 29.327C22.867 28.8325 23.1495 28.3833 23.52 28.0126L34.95 16.9226C35.1163 16.7622 35.3173 16.6425 35.5375 16.5726L32 15.5601L19.0475 19.2501L11.915 33.5251L24.64 42.6126L39.54 46.3376L47.75 38.1226ZM52.17 33.7026L45.0725 19.5001H36.6075L25.63 30.1501C25.5813 30.2012 25.5446 30.2624 25.5225 30.3295C25.5005 30.3965 25.4936 30.4676 25.5025 30.5376C25.5103 30.6139 25.5355 30.6875 25.5762 30.7525C25.617 30.8175 25.6722 30.8723 25.7375 30.9126C29.06 33.0351 34.2725 33.6301 38.935 28.9326C39.1959 28.6707 39.5443 28.5143 39.9135 28.4936C40.2826 28.4728 40.6464 28.5891 40.935 28.8201L49.89 36.0001L52.17 33.7026ZM59.76 28.8826L53.5525 16.4601C53.4934 16.3415 53.3897 16.2511 53.2641 16.2089C53.1384 16.1667 53.0012 16.1761 52.8825 16.2351L48.0125 18.6701L54.67 32.0001L59.54 29.5651C59.5993 29.5365 59.6521 29.496 59.6952 29.4461C59.7382 29.3962 59.7704 29.338 59.79 29.2751C59.8126 29.2114 59.822 29.1437 59.8177 29.0763C59.8134 29.0088 59.7955 28.9429 59.765 28.8826H59.76Z" fill="#2F2F2F"/>
</svg>
