<svg width="64" height="64" viewBox="0 0 64 64" fill="none" xmlns="http://www.w3.org/2000/svg">
<path d="M44.5 8.5C39.25 8.5 34.685 10.8675 32 14.835C29.315 10.8675 24.75 8.5 19.5 8.5C15.5232 8.50463 11.7106 10.0865 8.89851 12.8985C6.08647 15.7106 4.50463 19.5232 4.5 23.5C4.5 30.8 9.05 38.3975 18.025 46.0775C22.1376 49.5819 26.58 52.6797 31.29 55.3275C31.5083 55.4448 31.7522 55.5062 32 55.5062C32.2478 55.5062 32.4917 55.4448 32.71 55.3275C37.42 52.6797 41.8624 49.5819 45.975 46.0775C54.95 38.3975 59.5 30.8 59.5 23.5C59.4954 19.5232 57.9135 15.7106 55.1015 12.8985C52.2894 10.0865 48.4768 8.50463 44.5 8.5ZM32 52.2775C27.8975 49.91 7.5 37.43 7.5 23.5C7.50331 20.3184 8.76865 17.2681 11.0184 15.0184C13.2681 12.7687 16.3184 11.5033 19.5 11.5C24.57 11.5 28.8275 14.2075 30.6125 18.5675C30.7255 18.8426 30.9178 19.0779 31.1648 19.2435C31.4119 19.4091 31.7026 19.4975 32 19.4975C32.2974 19.4975 32.5881 19.4091 32.8352 19.2435C33.0822 19.0779 33.2745 18.8426 33.3875 18.5675C35.1725 14.2075 39.43 11.5 44.5 11.5C47.6816 11.5033 50.7319 12.7687 52.9816 15.0184C55.2313 17.2681 56.4967 20.3184 56.5 23.5C56.5 37.43 36.1025 49.91 32 52.2775Z" fill="#2F2F2F"/>
</svg>
