<svg width="37" height="37" viewBox="0 0 37 37" fill="none" xmlns="http://www.w3.org/2000/svg">
<path d="M18.5 10.0625C16.8312 10.0625 15.1999 10.5574 13.8124 11.4845C12.4248 12.4116 11.3434 13.7294 10.7048 15.2711C10.0662 16.8129 9.89906 18.5094 10.2246 20.1461C10.5502 21.7828 11.3538 23.2862 12.5338 24.4662C13.7138 25.6462 15.2172 26.4498 16.8539 26.7754C18.4906 27.1009 20.1871 26.9338 21.7289 26.2952C23.2706 25.6566 24.5884 24.5752 25.5155 23.1876C26.4426 21.8001 26.9375 20.1688 26.9375 18.5C26.9352 16.263 26.0455 14.1182 24.4636 12.5364C22.8818 10.9545 20.737 10.0648 18.5 10.0625ZM18.5 24.125C17.3875 24.125 16.2999 23.7951 15.3749 23.177C14.4499 22.5589 13.7289 21.6804 13.3032 20.6526C12.8774 19.6248 12.766 18.4938 12.9831 17.4026C13.2001 16.3115 13.7359 15.3092 14.5225 14.5225C15.3092 13.7359 16.3115 13.2001 17.4026 12.9831C18.4938 12.766 19.6248 12.8774 20.6526 13.3032C21.6804 13.7289 22.5589 14.4499 23.177 15.3749C23.7951 16.2999 24.125 17.3875 24.125 18.5C24.125 19.9918 23.5324 21.4226 22.4775 22.4775C21.4226 23.5324 19.9918 24.125 18.5 24.125ZM26.9375 0.21875H10.0625C7.45263 0.221542 4.95046 1.25954 3.105 3.105C1.25954 4.95046 0.221542 7.45263 0.21875 10.0625V26.9375C0.221542 29.5474 1.25954 32.0495 3.105 33.895C4.95046 35.7405 7.45263 36.7785 10.0625 36.7812H26.9375C29.5474 36.7785 32.0495 35.7405 33.895 33.895C35.7405 32.0495 36.7785 29.5474 36.7812 26.9375V10.0625C36.7785 7.45263 35.7405 4.95046 33.895 3.105C32.0495 1.25954 29.5474 0.221542 26.9375 0.21875ZM33.9688 26.9375C33.9688 28.8023 33.228 30.5907 31.9093 31.9093C30.5907 33.228 28.8023 33.9688 26.9375 33.9688H10.0625C8.1977 33.9688 6.40927 33.228 5.09066 31.9093C3.77204 30.5907 3.03125 28.8023 3.03125 26.9375V10.0625C3.03125 8.1977 3.77204 6.40927 5.09066 5.09066C6.40927 3.77204 8.1977 3.03125 10.0625 3.03125H26.9375C28.8023 3.03125 30.5907 3.77204 31.9093 5.09066C33.228 6.40927 33.9688 8.1977 33.9688 10.0625V26.9375ZM29.75 9.35938C29.75 9.77657 29.6263 10.1844 29.3945 10.5313C29.1627 10.8782 28.8333 11.1485 28.4478 11.3082C28.0624 11.4678 27.6383 11.5096 27.2291 11.4282C26.8199 11.3468 26.4441 11.1459 26.1491 10.8509C25.8541 10.5559 25.6532 10.1801 25.5718 9.77089C25.4904 9.36172 25.5322 8.93759 25.6918 8.55215C25.8515 8.16671 26.1218 7.83727 26.4687 7.60549C26.8156 7.37371 27.2234 7.25 27.6406 7.25C28.2001 7.25 28.7366 7.47224 29.1322 7.86782C29.5278 8.26341 29.75 8.79993 29.75 9.35938Z" fill="#44AEC5"/>
</svg>
