<svg width="52" height="52" viewBox="0 0 52 52" fill="none" xmlns="http://www.w3.org/2000/svg">
<path d="M26 0.5C20.9566 0.5 16.0264 1.99555 11.833 4.79752C7.6395 7.5995 4.3711 11.5821 2.44107 16.2416C0.511033 20.9011 0.00604856 26.0283 0.989972 30.9748C1.97389 35.9213 4.40253 40.465 7.96877 44.0312C11.535 47.5975 16.0787 50.0261 21.0252 51.01C25.9717 51.9939 31.0989 51.489 35.7584 49.5589C40.4179 47.6289 44.4005 44.3605 47.2025 40.167C50.0044 35.9736 51.5 31.0434 51.5 26C51.4921 19.2394 48.8029 12.758 44.0224 7.97755C39.242 3.19709 32.7606 0.50794 26 0.5ZM26 48.5C21.5499 48.5 17.1998 47.1804 13.4997 44.7081C9.79956 42.2357 6.91568 38.7217 5.21271 34.6104C3.50973 30.499 3.06416 25.975 3.93233 21.6105C4.80049 17.2459 6.94341 13.2368 10.0901 10.0901C13.2368 6.94342 17.2459 4.8005 21.6105 3.93233C25.975 3.06416 30.499 3.50974 34.6104 5.21271C38.7217 6.91568 42.2357 9.79956 44.7081 13.4997C47.1804 17.1998 48.5 21.5499 48.5 26C48.4934 31.9653 46.1207 37.6845 41.9026 41.9026C37.6845 46.1207 31.9653 48.4934 26 48.5ZM41.5 26C41.5 26.3978 41.342 26.7794 41.0607 27.0607C40.7794 27.342 40.3978 27.5 40 27.5H26C25.6022 27.5 25.2206 27.342 24.9393 27.0607C24.658 26.7794 24.5 26.3978 24.5 26V12C24.5 11.6022 24.658 11.2206 24.9393 10.9393C25.2206 10.658 25.6022 10.5 26 10.5C26.3978 10.5 26.7794 10.658 27.0607 10.9393C27.342 11.2206 27.5 11.6022 27.5 12V24.5H40C40.3978 24.5 40.7794 24.658 41.0607 24.9393C41.342 25.2206 41.5 25.6022 41.5 26Z" fill="#2F2F2F"/>
</svg>
