<svg width="52" height="56" viewBox="0 0 52 56" fill="none" xmlns="http://www.w3.org/2000/svg">
<path d="M48 11.5C48.9283 11.5 49.8185 11.1313 50.4749 10.4749C51.1312 9.8185 51.5 8.92826 51.5 8V4C51.5 3.07174 51.1312 2.1815 50.4749 1.52513C49.8185 0.868749 48.9283 0.5 48 0.5H4C3.07174 0.5 2.1815 0.868749 1.52513 1.52513C0.868749 2.1815 0.5 3.07174 0.5 4V8C0.5 8.92826 0.868749 9.8185 1.52513 10.4749C2.1815 11.1313 3.07174 11.5 4 11.5H4.5V36.5H2C1.60218 36.5 1.22064 36.658 0.93934 36.9393C0.658035 37.2206 0.5 37.6022 0.5 38C0.5 38.3978 0.658035 38.7794 0.93934 39.0607C1.22064 39.342 1.60218 39.5 2 39.5H24.5V44.71C23.2228 45.072 22.1197 45.8838 21.3941 46.9955C20.6686 48.1072 20.3696 49.4438 20.5524 50.7587C20.7351 52.0736 21.3873 53.278 22.3885 54.1497C23.3898 55.0214 24.6725 55.5015 26 55.5015C27.3275 55.5015 28.6102 55.0214 29.6115 54.1497C30.6127 53.278 31.2649 52.0736 31.4476 50.7587C31.6304 49.4438 31.3314 48.1072 30.6059 46.9955C29.8803 45.8838 28.7772 45.072 27.5 44.71V39.5H50C50.3978 39.5 50.7794 39.342 51.0607 39.0607C51.342 38.7794 51.5 38.3978 51.5 38C51.5 37.6022 51.342 37.2206 51.0607 36.9393C50.7794 36.658 50.3978 36.5 50 36.5H47.5V11.5H48ZM28.5 50C28.5 50.4945 28.3534 50.9778 28.0787 51.3889C27.804 51.8 27.4135 52.1205 26.9567 52.3097C26.4999 52.4989 25.9972 52.5484 25.5123 52.452C25.0273 52.3555 24.5819 52.1174 24.2322 51.7678C23.8826 51.4181 23.6445 50.9727 23.548 50.4877C23.4516 50.0028 23.5011 49.5001 23.6903 49.0433C23.8795 48.5865 24.2 48.196 24.6111 47.9213C25.0222 47.6466 25.5055 47.5 26 47.5C26.663 47.5 27.2989 47.7634 27.7678 48.2322C28.2366 48.7011 28.5 49.337 28.5 50ZM3.5 8V4C3.5 3.86739 3.55268 3.74021 3.64645 3.64645C3.74021 3.55268 3.86739 3.5 4 3.5H48C48.1326 3.5 48.2598 3.55268 48.3536 3.64645C48.4473 3.74021 48.5 3.86739 48.5 4V8C48.5 8.13261 48.4473 8.25979 48.3536 8.35355C48.2598 8.44732 48.1326 8.5 48 8.5H4C3.86739 8.5 3.74021 8.44732 3.64645 8.35355C3.55268 8.25979 3.5 8.13261 3.5 8ZM44.5 36.5H7.5V11.5H44.5V36.5Z" fill="#2F2F2F"/>
</svg>
