<svg width="37" height="37" viewBox="0 0 37 37" fill="none" xmlns="http://www.w3.org/2000/svg">
<path d="M28.9731 21.4602L23.3481 18.6477C23.1267 18.5373 22.88 18.4873 22.6331 18.5028C22.3862 18.5182 22.1478 18.5985 21.9418 18.7355L19.3596 20.4582C18.1742 19.8066 17.1987 18.8311 16.5471 17.6457L18.2697 15.0635C18.4068 14.8575 18.4871 14.6191 18.5025 14.3722C18.518 14.1252 18.468 13.8786 18.3576 13.6572L15.5451 8.03223C15.4286 7.7968 15.2484 7.59874 15.025 7.46049C14.8016 7.32224 14.544 7.24932 14.2813 7.25C12.4165 7.25 10.628 7.99079 9.30943 9.30941C7.99081 10.628 7.25002 12.4164 7.25002 14.2812C7.25468 18.3824 8.88591 22.3142 11.7859 25.2142C14.6858 28.1141 18.6176 29.7453 22.7188 29.75C23.6421 29.75 24.5564 29.5681 25.4095 29.2148C26.2626 28.8614 27.0377 28.3435 27.6906 27.6906C28.3435 27.0377 28.8614 26.2626 29.2148 25.4095C29.5682 24.5564 29.75 23.6421 29.75 22.7188C29.7502 22.4575 29.6776 22.2014 29.5404 21.9791C29.4032 21.7567 29.2067 21.5771 28.9731 21.4602ZM22.7188 26.9375C19.3633 26.9338 16.1463 25.5992 13.7736 23.2265C11.4009 20.8538 10.0662 17.6368 10.0625 14.2812C10.0623 13.3059 10.4 12.3605 11.0182 11.6061C11.6364 10.8517 12.4969 10.3348 13.4533 10.1434L15.4713 14.1863L13.7539 16.7422C13.6256 16.9347 13.5467 17.1559 13.5244 17.3862C13.502 17.6164 13.5368 17.8487 13.6256 18.0623C14.6318 20.4536 16.5341 22.356 18.9254 23.3621C19.1397 23.4549 19.3737 23.4929 19.6063 23.4726C19.8389 23.4524 20.0628 23.3745 20.2578 23.2461L22.826 21.534L26.869 23.552C26.6761 24.5095 26.1569 25.3704 25.4 25.9878C24.6432 26.6052 23.6955 26.9409 22.7188 26.9375ZM18.5 0.21875C15.3438 0.218062 12.2412 1.03453 9.49414 2.58868C6.74709 4.14284 4.44921 6.38173 2.82415 9.08744C1.1991 11.7932 0.302237 14.8735 0.220861 18.0287C0.139486 21.1838 0.87637 24.3063 2.35979 27.0922L0.364671 33.0775C0.19941 33.5731 0.175427 34.1049 0.29541 34.6133C0.415393 35.1217 0.674601 35.5867 1.04398 35.956C1.41336 36.3254 1.87831 36.5846 2.38673 36.7046C2.89515 36.8246 3.42693 36.8006 3.92248 36.6354L9.90784 34.6402C12.3596 35.9443 15.0762 36.6726 17.8514 36.77C20.6267 36.8674 23.3877 36.3312 25.9248 35.2023C28.4619 34.0733 30.7085 32.3811 32.494 30.2543C34.2795 28.1274 35.557 25.6218 36.2295 22.9275C36.9021 20.2332 36.952 17.4211 36.3755 14.7046C35.7989 11.9881 34.6111 9.43872 32.9022 7.24985C31.1933 5.06099 29.0081 3.29021 26.5127 2.07193C24.0172 0.853652 21.277 0.219889 18.5 0.21875ZM18.5 33.9688C15.7806 33.9706 13.109 33.2545 10.7551 31.8928C10.5828 31.7928 10.3911 31.7306 10.193 31.7103C9.99476 31.69 9.79452 31.7121 9.60549 31.775L3.03127 33.9688L5.22327 27.3945C5.28645 27.2056 5.30878 27.0054 5.28878 26.8073C5.26878 26.6091 5.20691 26.4174 5.10725 26.2449C3.40212 23.2969 2.71752 19.8686 3.15964 16.4918C3.60177 13.115 5.14591 9.97851 7.55252 7.56885C9.95913 5.1592 13.0937 3.6111 16.4699 3.16471C19.8461 2.71832 23.2753 3.39859 26.2255 5.09999C29.1756 6.8014 31.4819 9.42882 32.7864 12.5747C34.0909 15.7205 34.3208 19.209 33.4404 22.4988C32.56 25.7887 30.6186 28.696 27.9172 30.7699C25.2159 32.8438 21.9056 33.9682 18.5 33.9688Z" fill="#44AEC5"/>
</svg>
